<svg width="48" height="48" viewBox="0 0 48 48" fill="none" xmlns="http://www.w3.org/2000/svg">
<path d="M8.40625 8.37773C8.40625 8.37773 14.576 8.37645 19.3071 8.375H39.6126L39.6147 20.4688L32.5952 20.4631L32.5987 15.6966C30.974 15.7283 27.6027 15.6982 25.978 15.697L15.4348 15.7013L15.4383 32.6077L34.8906 32.5655L34.8891 34.8281L13.1681 34.8594V20.3111C13.1684 18.1772 13.134 15.557 13.1591 13.4321C13.9314 13.3976 14.8608 13.4253 15.6438 13.4308L20.6633 13.4317L34.8866 13.4366C34.8365 14.0389 34.8573 14.9584 34.8592 15.5873C34.8611 16.2644 34.8342 17.5661 34.8763 18.2208C35.6812 18.241 36.5627 18.223 37.3736 18.223L37.3792 13.247C37.3783 12.386 37.3577 11.5111 37.371 10.6517C36.0963 10.6006 34.6722 10.6212 33.3906 10.6298L27.3941 10.6405L10.6324 10.6299L10.6566 29.0678L10.6555 37.3222L37.3842 37.3193L37.3839 25.1551H29.4531L29.4541 22.8555L39.6126 22.8627L39.6147 39.5893L8.41053 39.5938L8.40625 8.37773Z" fill="black"/>
<path d="M32.6251 27.5411L34.8934 27.5397L34.8934 34.8594L32.623 32.6077L32.6251 27.5411Z" fill="black"/>
<rect x="17.9375" y="18.1875" width="12.125" height="11.9062" fill="black"/>
<rect x="17.9375" y="18.1875" width="12.125" height="11.9062" fill="black"/>
</svg>
